<svg id="Layer_1" data-name="Layer 1" xmlns="http://www.w3.org/2000/svg" viewBox="0 0 78.62 36"><defs><style>.cls-1{fill:#fff;}</style></defs><title>forkit</title><path class="cls-1" d="M19.81,13.36V17h5v2.7h-5v6.13H16.74V10.64h9.41v2.72Z"/><path class="cls-1" d="M26.75,20.69a5.36,5.36,0,0,1,5.54-5.39,5.38,5.38,0,1,1,0,10.75A5.35,5.35,0,0,1,26.75,20.69Zm8.14,0a2.61,2.61,0,1,0-5.21,0,2.61,2.61,0,1,0,5.21,0Z"/><path class="cls-1" d="M47.63,15.63,47,18.39A3,3,0,0,0,45.49,18C44,18,43,19.38,43,22.32v3.53H40.1V15.56H43v2.19a3.15,3.15,0,0,1,3-2.45A3.69,3.69,0,0,1,47.63,15.63Z"/><path class="cls-1" d="M55.71,25.85l-3.62-4.46v4.46H49.2V10.07h2.89V18.7l2.6-3.14H58.4l-4,4.53,4.93,5.76Z"/><path class="cls-1" d="M65,12a1.84,1.84,0,1,1,1.84,1.74A1.78,1.78,0,0,1,65,12Zm.4,3.57h2.89V25.85H65.42Z"/><path class="cls-1" d="M77.3,17.79H75.11v8.06H72.22V17.79H70.34V15.56h1.88V11.79h2.89v3.77H77.3Z"/><path class="cls-1" d="M8.14,1.76C7,4.4,4.46,9.33,8.26,11.13a2.86,2.86,0,0,0,3.54-1A35.89,35.89,0,0,0,15,4.76.8.8,0,0,0,13.63,4c-.56,1-1.17,1.93-1.73,2.91s-1,2.41-2.3,2.66c-3.54.66-.64-5.65-.08-6.95.41-.94-1-1.75-1.38-.81Z"/><path class="cls-1" d="M11.05,2.85A52.67,52.67,0,0,0,2.21,31a.8.8,0,0,0,1.6,0A51.1,51.1,0,0,1,12.43,3.66C13,2.8,11.62,2,11.05,2.85Z"/><path class="cls-1" d="M3.2,20.29A27.87,27.87,0,0,0,.81,29.61c-.15,1.57-.65,5,1.6,5.54C6.14,36.09,5.23,22.84,5.26,21a.8.8,0,0,0-1.6,0c0,1.07.17,11.13-.54,11.2-2.25.21,1-10,1.46-11.09.43-.93-1-1.74-1.38-.81Z"/><path class="cls-1" d="M3.44,32.62a3.78,3.78,0,0,1,.37-1.39l-1.47-.61a9.09,9.09,0,0,1-.58,2.16L3.33,33a16.65,16.65,0,0,1,.28-1.72L2,31.05a9.64,9.64,0,0,1,0,2,.8.8,0,0,0,.58.77.85.85,0,0,0,.91-.37,1.33,1.33,0,0,0,.16-.34c.31-1-1.23-1.41-1.55-.43v0l1.49.41a10.37,10.37,0,0,0,.05-2c-.07-.84-1.38-1.15-1.58-.21-.15.71-.25,1.43-.33,2.15a.8.8,0,0,0,.69.79.82.82,0,0,0,.88-.58A8.86,8.86,0,0,0,3.89,31a.82.82,0,0,0-.47-.94.79.79,0,0,0-1,.33,5.74,5.74,0,0,0-.58,2.19c-.07,1,1.54,1,1.6,0Z"/></svg>